<svg version="1.1" id="Layer_1" xmlns="http://www.w3.org/2000/svg" xmlns:xlink="http://www.w3.org/1999/xlink" x="0px" y="0px"
	 width="100%" viewBox="0 0 272 99" enable-background="new 0 0 272 99" xml:space="preserve">
<path fill="#494E52" opacity="1.000000" stroke="none" 
	d="
M1.367680,96.349281 
	C1.000000,89.645599 1.000000,83.291206 1.000000,76.468399 
	C2.503476,74.189865 4.164711,75.076866 5.952319,75.527634 
	C9.054531,76.309906 12.189700,76.606567 14.626154,73.296516 
	C15.491360,71.619400 17.013203,70.894470 17.811459,69.153343 
	C18.066431,68.662956 18.170252,68.467033 18.470020,68.004257 
	C19.218491,67.125282 20.000431,66.703545 20.332752,65.533966 
	C20.470911,65.027290 20.520700,64.822014 20.661083,64.311592 
	C20.887384,63.595848 21.006563,63.180450 21.172779,62.431953 
	C21.600370,59.798267 21.468075,57.474354 21.506783,54.799881 
	C21.552874,52.994030 21.606792,51.545315 21.513142,49.727631 
	C21.495598,47.128128 21.500212,44.897270 21.504820,42.301239 
	C21.508354,40.497387 21.663828,39.060062 21.531300,37.256905 
	C21.506994,35.909832 21.499159,34.926262 21.658642,33.573753 
	C21.837732,32.973228 21.945299,32.743889 22.311480,32.234425 
	C23.199310,31.529448 23.828209,31.104088 24.862009,30.652828 
	C26.609798,30.379902 27.792347,30.908054 28.938662,31.613731 
	C30.307711,32.456524 31.713100,32.215462 32.308266,30.830372 
	C33.821133,27.309576 36.749397,27.386845 39.774918,27.497982 
	C42.952389,27.614697 46.018005,27.182058 49.234596,25.622669 
	C50.868710,25.495466 52.137711,25.481911 53.777149,25.721546 
	C54.935555,26.174322 55.331146,27.237120 55.983059,27.418079 
	C64.502686,29.783009 61.268135,36.456184 60.800362,41.612621 
	C60.534397,44.544491 60.271236,47.417023 60.245365,50.388355 
	C60.172302,58.779755 61.861828,67.327843 58.377003,75.489349 
	C57.776394,76.895988 58.317699,78.411217 58.635223,79.889893 
	C60.394939,88.084747 58.088169,90.626114 51.053913,89.708328 
	C59.121643,89.875732 68.176674,91.550850 77.367599,91.737511 
	C82.260246,91.836884 83.229073,93.417824 81.612671,97.996994 
	C65.417969,98.666557 49.597939,98.665489 33.779140,98.092079 
	C24.857325,97.768661 15.927885,98.244720 7.004003,97.839378 
	C5.149104,97.755127 3.253208,98.204826 1.367680,96.349281 
z"/>
<path fill="#464E53" opacity="1.000000" stroke="none" 
	d="
M16.796898,73.668823 
	C16.070498,77.187202 9.396251,79.720688 5.605459,78.183571 
	C4.252886,77.635132 2.991369,76.862129 1.344145,76.095810 
	C1.000000,52.222252 1.083893,28.443865 0.903350,4.667487 
	C0.878248,1.361704 1.879180,0.925676 4.815941,0.933932 
	C40.897964,1.035361 76.980377,1.000000 113.531342,1.000000 
	C119.756676,6.594237 119.757614,10.274049 113.679314,14.611295 
	C110.196907,16.810627 106.339897,17.701906 103.686493,21.116821 
	C100.082634,22.525776 98.129768,19.706076 95.201736,18.722401 
	C94.591270,18.602461 94.348076,18.558336 93.765388,18.374310 
	C91.761497,16.293049 89.898705,16.096478 87.905655,17.682394 
	C86.615173,18.709265 85.348480,19.717958 83.159882,19.482048 
	C79.771210,19.402464 77.183083,18.290115 74.410393,17.109320 
	C70.210831,15.320868 65.332863,15.742088 60.796642,15.632844 
	C46.764042,15.294900 32.714199,15.269702 18.684158,16.069866 
	C17.842897,16.117844 17.090836,16.479191 16.096716,17.244068 
	C15.291720,17.696081 14.813210,17.889606 14.009552,18.229136 
	C12.921224,18.969110 12.247475,19.617483 11.648711,20.803989 
	C10.900158,22.541933 10.668718,24.025524 10.579966,25.950153 
	C10.419919,33.324207 10.555614,40.290855 10.462963,47.663048 
	C7.481145,54.031574 9.388626,60.721794 7.648170,66.881836 
	C7.208661,68.437401 8.409036,69.246445 10.136742,69.759499 
	C11.141939,70.085701 11.696890,70.497536 12.543596,71.050186 
	C13.608058,71.563728 14.438148,71.782722 15.523075,72.234314 
	C16.115496,72.699089 16.384237,73.034943 16.796898,73.668823 
z"/>
<path fill="#51565B" opacity="1.000000" stroke="none" 
	d="
M243.383484,99.780975 
	C240.958328,100.000000 238.916672,100.000000 236.437500,100.000000 
	C233.432098,97.152313 230.309036,95.601463 226.406219,95.391060 
	C217.736710,94.923660 213.613358,88.341682 209.948318,81.968636 
	C207.670441,78.007690 208.233582,72.901535 207.466721,68.321121 
	C207.048798,65.824829 208.797867,64.379761 211.520264,63.639683 
	C212.756485,63.404408 213.666901,63.418209 214.291473,63.976162 
	C221.891907,70.765900 230.775314,73.522224 241.206818,72.765495 
	C243.837448,76.131287 246.959763,78.569923 248.624054,82.327682 
	C249.757050,84.885880 252.567200,86.220184 255.171249,87.356163 
	C258.257385,88.702461 260.835754,90.699432 262.963379,93.291466 
	C264.582184,95.263596 265.428436,97.258575 262.630920,99.382523 
	C256.071899,99.566833 249.918732,99.406937 243.383484,99.780975 
z"/>
<path fill="#4E5359" opacity="1.000000" stroke="none" 
	d="
M212.553131,64.533813 
	C211.026581,65.582092 209.462646,66.056351 209.708603,68.041534 
	C210.801834,76.865608 212.270309,85.405403 220.446518,91.060654 
	C223.055771,92.865395 225.649277,92.882912 228.445724,93.039467 
	C232.436768,93.262894 235.707901,94.441734 235.982910,99.617279 
	C232.638718,100.000000 229.277420,100.000000 225.458069,100.000000 
	C219.615189,97.875656 213.998840,99.527641 208.108963,98.976334 
	C201.424591,95.198082 194.332230,92.435921 190.257980,85.843681 
	C186.861099,80.347412 187.406967,78.961044 193.205078,76.134727 
	C193.654465,75.915665 193.933624,75.475998 194.398926,74.714973 
	C199.253067,70.080589 198.884201,63.336498 202.358002,58.426159 
	C203.279175,57.124062 203.397324,55.255039 205.499023,54.337677 
	C210.968918,55.611412 212.323196,59.586338 212.553131,64.533813 
z"/>
<path fill="#565C62" opacity="1.000000" stroke="none" 
	d="
M154.757050,1.278247 
	C164.354233,1.000000 173.708450,1.000000 183.531342,1.000000 
	C188.298080,4.922210 192.022278,9.140406 191.446991,15.919405 
	C190.783035,18.603905 188.682159,19.853254 187.197754,21.965771 
	C181.720230,22.911358 178.104156,26.103630 174.474640,29.950691 
	C172.912476,30.219063 171.611816,30.069221 170.925430,29.128345 
	C167.033630,23.793562 161.323425,20.799973 155.856689,16.942963 
	C154.537415,11.645341 154.804337,6.578900 154.757050,1.278247 
z"/>
<path fill="#60676B" opacity="1.000000" stroke="none" 
	d="
M200.733353,1.331382 
	C207.021149,1.000000 213.042297,1.000000 219.531723,1.000000 
	C221.385391,2.276469 223.112473,1.974971 224.751221,1.988712 
	C228.747208,2.022216 232.744156,1.957274 236.739700,2.010221 
	C242.564697,2.087411 248.293961,2.462112 253.364716,5.944421 
	C258.454651,9.439894 264.610596,10.851221 270.132874,14.438164 
	C271.278809,16.510782 270.969788,18.338844 270.704376,20.576960 
	C267.019440,25.624376 262.733124,25.625767 257.641479,22.911488 
	C253.315750,21.224539 249.749832,18.332346 244.694260,19.329636 
	C244.053619,19.164160 243.807617,19.052275 243.255066,18.667421 
	C239.027115,12.011693 232.292038,12.275155 226.142532,11.582009 
	C221.205673,11.025548 216.176712,11.556181 211.193008,11.348125 
	C207.414062,11.190365 203.996750,10.131972 201.466888,7.076333 
	C200.120544,5.450170 199.189087,3.765286 200.733353,1.331382 
z"/>
<path fill="#4A5157" opacity="1.000000" stroke="none" 
	d="
M111.642204,15.062195 
	C115.766762,10.976921 116.646149,6.679098 114.037399,1.382126 
	C122.020905,1.000000 130.041809,1.000000 138.531357,1.000000 
	C142.630783,4.947866 141.877136,10.471951 144.056885,15.349899 
	C144.063889,16.268667 143.920578,16.760530 143.422516,17.505640 
	C138.653961,19.657448 134.802734,22.563145 130.882034,25.960037 
	C130.138657,27.046492 129.391052,27.561321 128.140884,27.904322 
	C127.385323,28.018000 126.955704,28.048334 126.207794,28.120544 
	C125.671150,28.196674 125.451683,28.214230 124.897278,28.205912 
	C121.595901,26.731613 119.502052,23.726854 115.610214,23.208923 
	C113.514420,20.771364 112.103065,18.294537 111.642204,15.062195 
z"/>
<path fill="#686662" opacity="1.000000" stroke="none" 
	d="
M206.527679,97.743912 
	C211.184845,97.967255 215.414688,97.956505 219.643295,98.023979 
	C221.389084,98.051826 223.283249,97.679527 224.809875,99.666153 
	C180.979111,100.000000 136.958206,100.000000 92.468658,100.000000 
	C91.310417,99.181969 91.091286,98.248840 91.541763,96.765343 
	C93.270035,94.630051 95.360573,94.659996 97.310196,94.663742 
	C123.842079,94.714729 150.397507,93.601135 176.881058,96.087906 
	C178.957001,96.282845 180.763153,95.289970 183.232224,95.377701 
	C191.172623,96.068344 198.898758,94.155319 206.527679,97.743912 
z"/>
<path fill="#60676D" opacity="1.000000" stroke="none" 
	d="
M200.571533,1.000000 
	C203.152908,6.944832 205.600357,8.707203 212.017136,8.986153 
	C219.105011,9.294276 226.213730,8.442849 233.293274,9.889713 
	C238.002060,10.852060 241.602737,12.929745 243.905121,17.566803 
	C243.258514,19.260979 242.003525,19.677370 240.628006,19.334681 
	C233.802704,17.634245 227.147476,18.736931 220.105896,20.457188 
	C210.946091,20.390394 204.386688,15.005152 197.476639,10.792636 
	C194.610580,9.045425 191.948120,5.789050 194.732269,1.290203 
	C196.714355,1.000000 198.428711,1.000000 200.571533,1.000000 
z"/>
<path fill="#5A6268" opacity="1.000000" stroke="none" 
	d="
M194.541931,1.000000 
	C195.542450,5.858862 197.935898,9.290248 202.502625,11.295422 
	C205.229630,12.492806 207.853119,13.967843 210.401886,15.517497 
	C212.959976,17.072802 215.622086,17.990847 218.848969,18.023216 
	C220.471771,22.492430 216.685913,22.607424 214.099243,24.120451 
	C212.029816,24.746981 210.095612,25.682800 208.621719,24.161369 
	C205.399887,20.835636 201.285217,20.906328 196.826935,20.658575 
	C193.904144,20.040234 191.661102,18.959904 190.078918,16.310280 
	C189.117508,10.741839 185.435654,6.721746 184.033356,1.367919 
	C187.361282,1.000000 190.722580,1.000000 194.541931,1.000000 
z"/>
<path fill="#6B6963" opacity="1.000000" stroke="none" 
	d="
M1.000000,96.500000 
	C27.686106,96.314941 54.372211,96.629890 81.526138,96.922859 
	C82.244614,96.828613 82.495277,96.756348 83.063965,96.912094 
	C83.794510,97.870216 83.817551,98.616554 83.237595,99.689056 
	C56.654964,100.000000 30.309752,99.957520 3.965183,100.068199 
	C1.435469,100.078827 0.529987,99.441246 1.000000,96.500000 
z"/>
<path fill="#64696C" opacity="1.000000" stroke="none" 
	d="
M269.416931,14.730755 
	C261.226959,13.980800 254.808685,9.862580 248.315811,5.945045 
	C244.007019,3.345307 239.222794,3.320682 234.429291,2.939600 
	C229.753235,2.567852 224.852112,4.447243 220.202362,1.325571 
	C235.687561,1.000000 251.375122,1.000000 267.531342,1.000000 
	C271.553802,5.084559 271.873322,9.611253 269.416931,14.730755 
z"/>
<path fill="#4D545A" opacity="1.000000" stroke="none" 
	d="
M143.333878,16.414597 
	C139.224655,11.993599 138.982590,6.973569 139.000000,1.439897 
	C144.022095,1.000000 149.044189,1.000000 154.533142,1.000000 
	C158.980576,5.247659 157.955338,10.204365 157.000977,15.555845 
	C152.779968,19.815254 148.249130,18.825581 143.333878,16.414597 
z"/>
<path fill="#656460" opacity="1.000000" stroke="none" 
	d="
M272.617493,27.732567 
	C273.000000,50.355141 272.852814,72.712097 273.128174,95.063843 
	C273.181183,99.367500 272.113800,100.835922 267.499481,100.000000 
	C266.835419,99.781761 266.670868,99.563530 266.342041,98.969330 
	C268.504150,92.739960 269.088562,86.679733 268.432251,80.055542 
	C267.100342,68.370567 268.700928,57.009438 267.726959,45.289673 
	C268.745941,41.503864 268.498047,38.123550 268.084900,34.728176 
	C267.811188,32.478973 267.413788,30.189445 269.200073,27.824577 
	C270.434998,27.066498 271.330780,27.065590 272.617493,27.732567 
z"/>
<path fill="#666865" opacity="1.000000" stroke="none" 
	d="
M273.000000,27.531338 
	C272.250610,27.999685 271.501221,27.999371 270.377136,27.998650 
	C266.865234,26.585108 266.697449,24.402857 268.689026,21.370419 
	C268.996429,19.286087 268.996490,17.572235 268.995239,15.430151 
	C269.478668,10.563022 268.009674,6.271666 268.001099,1.434971 
	C271.987244,0.233536 273.431458,1.463552 273.129120,5.870027 
	C272.646515,12.904081 273.000000,19.995506 273.000000,27.531338 
z"/>
<path fill="#6A6E68" opacity="1.000000" stroke="none" 
	d="
M266.678223,98.581001 
	C267.022156,99.058601 267.019470,99.246925 267.008423,99.717621 
	C259.312408,100.000000 251.624832,100.000000 243.468628,100.000000 
	C249.250549,97.831299 255.713486,99.551643 262.517426,98.949394 
	C263.976746,98.084282 265.078522,97.796844 266.678223,98.581001 
z"/>
<path fill="#686662" opacity="1.000000" stroke="none" 
	d="
M83.416664,100.000000 
	C82.998482,99.266579 82.996971,98.533150 82.993759,97.433014 
	C84.104591,95.488716 85.586113,95.294418 87.685303,96.195557 
	C88.756813,97.292236 88.852196,98.206642 88.259956,99.594795 
	C86.611107,100.000000 85.222221,100.000000 83.416664,100.000000 
z"/>
<path fill="#6B6963" opacity="1.000000" stroke="none" 
	d="
M88.400146,100.000000 
	C88.001617,99.270515 88.003235,98.541039 88.007156,97.446823 
	C88.948242,95.986275 90.085716,95.942596 91.659149,96.772148 
	C91.993385,97.816704 91.996735,98.544464 92.000046,99.636108 
	C90.933434,100.000000 89.866859,100.000000 88.400146,100.000000 
z"/>
<path fill="#464D52" opacity="1.000000" stroke="none" 
	d="
M92.459160,97.064056 
	C90.928276,97.070801 89.866516,97.052650 88.407104,97.058289 
	C86.615639,97.063736 85.221832,97.045387 83.410034,97.046677 
	C82.825783,97.038925 82.659515,97.011536 82.243607,96.942520 
	C80.878944,93.408340 77.909836,93.986259 75.345131,94.031708 
	C63.867714,94.235130 52.772099,91.119850 39.908485,90.611710 
	C43.712677,87.632202 46.825699,88.051659 49.788120,88.009018 
	C57.288754,87.901047 58.870060,85.288994 55.083881,78.971031 
	C54.362267,77.766884 53.662956,77.011093 54.675804,75.506119 
	C60.501648,66.849571 57.811913,57.326946 57.163296,48.050743 
	C57.065468,46.651646 55.728054,45.223579 56.590298,43.787624 
	C60.226540,37.731907 60.378601,32.291622 54.074425,27.444042 
	C57.821358,23.716572 61.279251,26.045765 65.142372,28.049633 
	C66.522301,29.517817 67.252548,30.843466 67.444588,32.891796 
	C67.536728,41.632168 67.481995,49.912064 67.500443,58.623940 
	C67.546227,62.294632 67.357307,65.548210 68.219223,69.092941 
	C68.395317,69.665558 68.470360,69.886459 68.671875,70.419258 
	C69.348244,71.915749 70.232109,72.711807 71.797638,73.109589 
	C72.483635,73.206390 72.876938,73.230156 73.561081,73.193192 
	C74.888130,73.018150 75.564369,72.391624 76.235947,71.253708 
	C76.815186,70.455627 76.312805,71.123756 76.714127,70.591423 
	C80.307648,65.824799 80.307648,65.824799 84.422028,70.408226 
	C85.376434,70.908669 86.083656,71.112732 86.951660,71.791039 
	C87.577644,72.701591 87.951698,73.342224 88.311050,74.384109 
	C88.084793,78.258057 89.036957,79.767105 93.176010,79.283051 
	C96.732452,78.867126 100.178528,79.353722 103.655052,77.423279 
	C107.063889,75.530426 110.920486,77.920364 113.112160,82.346306 
	C115.610573,87.391731 116.331207,86.875542 121.406990,85.140701 
	C131.262558,81.772224 127.976486,74.513458 127.533508,67.552971 
	C127.447372,66.046577 127.880936,65.122688 129.039734,64.137642 
	C131.283691,63.211315 133.030014,63.676456 134.480301,64.912819 
	C140.916290,70.399490 148.188263,72.663132 156.580063,70.923256 
	C157.216476,70.791321 157.894882,70.983574 158.902191,71.271713 
	C162.951859,73.054832 162.583893,76.905884 163.598648,79.854340 
	C164.803787,83.355949 166.607437,85.009377 170.383972,85.905022 
	C176.388901,87.329155 181.465149,90.732002 184.264526,96.792244 
	C169.115387,99.399086 154.214767,96.496109 139.284363,96.929207 
	C123.844269,97.377098 108.381264,97.035446 92.459160,97.064056 
z"/>
<path fill="#E3B044" opacity="1.000000" stroke="none" 
	d="
M12.360521,74.273453 
	C11.584502,73.764236 11.142235,73.434021 10.451189,72.977478 
	C6.154204,70.077873 8.008918,66.059792 8.022599,61.993641 
	C8.249490,60.109074 8.552279,58.675446 8.611246,56.771660 
	C10.807002,47.242466 9.746477,37.993031 10.006872,28.807034 
	C10.076526,26.349810 9.713102,23.869080 10.512200,21.046242 
	C10.746501,20.393627 10.837495,20.134991 11.052225,19.490608 
	C11.844795,17.955721 13.338484,17.600773 14.080540,15.997890 
	C14.506489,15.538185 14.715593,15.393943 15.294558,15.163244 
	C19.067635,14.654953 21.155302,15.738950 21.024179,19.582899 
	C20.936989,22.138927 22.731258,24.215252 23.105919,27.052502 
	C23.356668,28.142401 23.284679,28.859030 22.913162,29.896179 
	C22.496653,31.120317 22.112091,31.984613 22.023281,33.288906 
	C21.997616,34.600906 22.001883,35.559658 21.982790,36.892685 
	C21.735058,39.324280 21.400572,41.381283 21.973454,43.855255 
	C22.186764,50.679710 22.072977,57.088230 21.832567,63.925728 
	C20.880009,65.935341 21.215343,67.798630 20.316429,69.796059 
	C19.793200,71.766861 18.710312,72.710121 17.173634,73.686478 
	C16.516903,73.963196 16.054270,73.990891 15.256308,74.111252 
	C14.206979,74.539726 13.451231,74.501503 12.360521,74.273453 
z"/>
<path fill="#464D52" opacity="1.000000" stroke="none" 
	d="
M48.706459,26.715942 
	C46.672909,30.336025 43.237595,28.556311 40.300667,28.981337 
	C38.405041,29.255671 36.421810,28.771322 35.220638,31.090897 
	C31.806618,37.683712 30.055490,37.848610 25.280960,32.144554 
	C24.576664,32.473522 23.980709,32.482815 23.225159,32.819656 
	C23.004745,32.999630 22.996326,33.005032 22.992815,33.009941 
	C22.681978,33.079762 22.374651,33.144672 21.815639,32.810997 
	C23.019432,26.444477 24.052605,25.385401 29.767252,25.555996 
	C35.984341,25.741589 42.268448,24.573421 48.706459,26.715942 
z"/>
<path fill="#524936" opacity="1.000000" stroke="none" 
	d="
M49.412460,27.072268 
	C42.692444,27.062387 36.388153,27.113779 30.087883,26.978241 
	C26.107166,26.892607 23.357908,28.359283 22.105515,32.655251 
	C23.280493,43.369228 22.353374,53.756302 22.219730,64.565620 
	C21.924683,66.480164 22.111074,68.004890 20.995770,69.625671 
	C20.306929,68.565964 20.554790,67.177193 20.626314,65.400719 
	C20.763325,57.977905 20.805378,50.958515 20.800331,43.473255 
	C20.289671,41.302666 20.564568,39.566135 20.626667,37.420879 
	C20.747889,35.934505 20.773193,34.870163 20.759686,33.407928 
	C20.473637,32.224953 20.494869,31.421276 20.775061,30.277010 
	C21.261072,29.467682 21.527107,28.996246 21.811356,28.253551 
	C21.763573,27.716726 21.697575,27.451164 21.806925,26.812485 
	C22.281509,25.967869 22.632854,25.538952 23.409588,24.947651 
	C24.067280,24.690811 24.350204,24.637722 25.068134,24.557640 
	C37.118336,24.465862 48.733604,24.508629 60.783295,24.515284 
	C61.503361,24.534582 61.788975,24.546980 62.496246,24.609020 
	C63.741245,24.941603 64.314171,25.532293 64.868988,27.648348 
	C61.581581,28.323832 58.477764,26.398783 54.429459,27.084381 
	C52.614246,27.087185 51.222065,27.070812 49.412460,27.072268 
z"/>
<path fill="#434F5B" opacity="1.000000" stroke="none" 
	d="
M22.249233,65.000404 
	C21.996950,54.649323 21.998478,44.297359 22.016811,33.478111 
	C22.033615,33.010830 22.511599,33.010090 22.750450,33.012470 
	C22.992176,34.075085 22.995050,35.135315 22.999191,36.593452 
	C23.789808,37.999783 23.423950,39.163986 23.222563,40.641094 
	C23.001148,43.703163 23.000574,46.400368 23.001244,49.547119 
	C23.787064,51.003384 23.425222,52.164234 23.222858,53.637978 
	C23.001656,57.032078 23.000725,60.062229 23.001116,63.546474 
	C23.132477,64.165443 23.262516,64.330330 23.201603,64.745720 
	C22.841444,64.997322 22.672241,64.998421 22.249233,65.000404 
z"/>
<path fill="#C4A14C" opacity="1.000000" stroke="none" 
	d="
M20.567238,65.336731 
	C20.755898,66.362106 20.790524,67.726929 20.797363,69.502647 
	C20.769579,69.913551 20.426792,70.036385 20.256824,70.101868 
	C20.195641,68.670280 20.304422,67.173225 20.567238,65.336731 
z"/>
<path fill="#444E49" opacity="1.000000" stroke="none" 
	d="
M23.173325,53.739784 
	C23.002106,52.933891 23.001625,51.865860 23.001818,50.397247 
	C23.809406,51.088985 24.052309,52.236649 23.173325,53.739784 
z"/>
<path fill="#444E49" opacity="1.000000" stroke="none" 
	d="
M23.172838,40.743210 
	C23.000757,39.935501 22.999790,38.865044 22.999641,37.392967 
	C23.808847,38.086079 24.054087,39.236240 23.172838,40.743210 
z"/>
<path fill="#444E49" opacity="1.000000" stroke="none" 
	d="
M23.274940,32.924847 
	C23.484756,32.718601 23.964769,32.437572 24.714252,32.081192 
	C24.504194,32.287251 24.024666,32.568657 23.274940,32.924847 
z"/>
<path fill="#444E49" opacity="1.000000" stroke="none" 
	d="
M23.075790,64.877869 
	C23.010649,64.996223 23.005611,64.498383 23.004025,64.249474 
	C23.176125,64.233788 23.222288,64.486771 23.075790,64.877869 
z"/>
<path fill="#454C50" opacity="1.000000" stroke="none" 
	d="
M128.723114,67.755592 
	C130.506073,71.235214 130.963516,74.673660 130.977661,78.197830 
	C130.993500,82.146286 129.462158,84.984749 125.356483,85.912758 
	C123.665779,86.294899 122.415802,87.355690 121.055107,88.331459 
	C117.176308,91.113029 113.317726,89.916718 111.423370,85.467583 
	C108.491600,78.581932 108.514145,78.872185 101.951134,81.285492 
	C96.759949,83.194359 91.332031,81.586311 86.365417,79.877792 
	C82.823547,78.659378 86.373558,76.845085 86.983749,75.001778 
	C87.338242,74.366127 87.611336,74.075859 88.198517,73.717697 
	C88.817062,73.500031 89.162369,73.374100 89.698311,73.055519 
	C90.281937,72.495972 90.443405,71.975494 90.816078,71.211395 
	C92.096344,68.810745 92.550735,66.526337 92.606361,63.741882 
	C94.456573,53.423355 93.948296,43.504967 92.614883,33.120251 
	C92.893944,27.597300 92.997070,22.515923 94.898582,17.284515 
	C97.954559,17.007654 99.915894,18.881115 102.593002,19.905678 
	C105.463463,20.757767 105.871780,23.008120 106.501534,25.514923 
	C106.512657,27.277689 106.469902,28.632111 106.685150,30.373810 
	C106.787933,31.025518 106.829269,31.284147 106.938919,31.925991 
	C106.203613,37.893257 106.394279,43.515358 106.470505,49.123032 
	C106.540298,54.257717 105.955818,59.331703 105.586174,64.433723 
	C105.183762,69.987961 106.984718,71.439262 112.884460,70.780281 
	C113.698029,70.591408 114.169121,70.537842 114.988289,70.487381 
	C115.792137,70.388077 116.249352,70.305847 117.048782,70.126129 
	C119.655136,69.603256 121.810913,68.860970 123.879089,67.843285 
	C125.345901,67.121506 126.824577,66.254646 128.723114,67.755592 
z"/>
<path fill="#75A8CE" opacity="1.000000" stroke="none" 
	d="
M95.246941,64.533432 
	C94.600830,67.504234 94.897293,70.168846 93.376129,72.795609 
	C90.993156,74.429733 88.796799,74.253647 86.100403,73.303795 
	C85.203773,72.851295 84.767105,72.558304 84.128281,72.090981 
	C83.742256,71.701347 83.558372,71.486046 83.129379,70.925720 
	C81.637527,66.739586 82.952980,63.030624 83.514168,59.296970 
	C85.152695,48.395832 84.273941,37.425701 84.502029,26.486408 
	C84.608467,21.381636 88.322151,17.372805 94.183289,16.619747 
	C94.580551,16.738646 94.915459,16.846844 95.084068,16.897301 
	C95.248543,22.023884 95.244408,27.100012 95.291847,32.647743 
	C95.667938,43.442150 95.473564,53.766617 95.246941,64.533432 
z"/>
<path fill="#78A2C2" opacity="1.000000" stroke="none" 
	d="
M94.450760,16.380508 
	C93.496635,17.250214 92.604004,17.915991 92.243507,19.158495 
	C91.521873,21.645681 93.051224,26.602713 87.160683,23.420101 
	C86.028206,22.808237 86.058632,25.431967 86.046120,26.612030 
	C85.968460,33.932415 86.188774,41.260555 85.935951,48.573185 
	C85.684502,55.846447 84.993034,63.104492 84.333984,70.688004 
	C81.606682,68.490311 82.224602,64.963417 81.204552,61.441330 
	C80.820213,56.825291 81.111595,52.758228 81.928001,48.679569 
	C83.005951,43.294262 82.727455,37.876923 81.672798,32.488583 
	C81.261971,30.389662 80.926186,28.260664 81.569672,25.637068 
	C82.274940,23.007500 81.388016,20.450052 83.837303,18.417053 
	C87.826141,13.337841 90.548111,12.765032 94.450760,16.380508 
z"/>
<path fill="#D3DBE2" opacity="1.000000" stroke="none" 
	d="
M105.316635,26.283318 
	C104.016754,24.329369 102.935844,22.747789 102.987030,20.357994 
	C104.269928,16.170620 106.595680,13.840759 111.387482,14.718365 
	C114.280357,16.211559 116.232056,18.106815 116.452271,21.647926 
	C117.654633,27.291121 115.937950,28.945869 109.052956,28.676071 
	C107.322731,28.348907 106.324890,27.709278 105.316635,26.283318 
z"/>
<path fill="#545146" opacity="1.000000" stroke="none" 
	d="
M83.918930,18.002356 
	C84.177879,20.141142 84.107704,22.140179 83.974548,24.565569 
	C83.714050,25.173038 83.516510,25.354153 82.984451,25.761057 
	C78.821579,26.872463 77.482498,23.763142 75.288925,21.260813 
	C72.239548,18.105381 68.657204,17.543091 64.959084,17.508610 
	C51.913162,17.386974 38.864876,17.360748 25.820921,17.503393 
	C22.229143,17.542671 19.307312,15.058423 15.337394,15.744881 
	C14.933651,15.935472 14.998351,15.937173 14.980043,15.910488 
	C14.673749,16.302114 14.275859,16.507360 13.433966,16.365427 
	C14.002976,13.779327 16.144901,13.987236 18.108118,13.986084 
	C35.849030,13.975678 53.589958,14.002854 71.330879,14.004826 
	C73.544899,14.005072 75.667610,14.171164 77.118797,16.169115 
	C78.814049,18.503078 81.616585,16.596502 83.918930,18.002356 
z"/>
<path fill="#545146" opacity="1.000000" stroke="none" 
	d="
M9.317062,60.581409 
	C9.327569,64.725700 8.177122,68.505669 10.090967,72.460892 
	C8.106114,72.599648 6.385385,71.197823 6.560499,69.377388 
	C7.200679,62.722260 5.841260,55.886272 8.586470,49.178497 
	C11.382889,52.565868 9.169824,56.406754 9.317062,60.581409 
z"/>
<path fill="#B58F39" opacity="1.000000" stroke="none" 
	d="
M9.317789,60.724907 
	C9.115775,57.322598 9.055196,53.604679 8.946513,49.423576 
	C9.005030,41.382938 9.111650,33.805485 9.170627,25.782413 
	C9.391042,25.167778 9.659101,24.998760 10.177258,25.234268 
	C10.554132,35.805817 10.535668,45.972881 10.221527,56.565331 
	C9.823941,58.130222 9.641583,59.269760 9.317789,60.724907 
z"/>
<path fill="#DFB14D" opacity="1.000000" stroke="none" 
	d="
M12.980686,16.420025 
	C13.509794,16.131573 13.919718,16.031824 14.645688,15.907938 
	C14.418446,17.113150 13.814569,18.281437 11.972723,18.553656 
	C11.494187,18.193144 11.487581,17.802267 11.846931,17.221148 
	C12.379979,16.958061 12.638591,16.815861 12.980686,16.420025 
z"/>
<path fill="#545146" opacity="1.000000" stroke="none" 
	d="
M11.778856,17.143187 
	C11.984319,17.377001 11.882973,17.718674 11.715277,18.319611 
	C11.648927,18.578873 11.630453,18.670700 11.674084,18.687721 
	C11.691747,19.181095 11.524457,19.597862 10.549774,19.950386 
	C10.070072,18.846424 10.360180,17.810629 11.778856,17.143187 
z"/>
<path fill="#545146" opacity="1.000000" stroke="none" 
	d="
M10.173294,24.535461 
	C9.918797,24.881760 9.521082,25.107824 9.322033,25.222309 
	C8.977128,23.744062 8.845565,22.152580 9.719608,20.293774 
	C9.905206,19.954798 9.988609,20.004148 10.029285,20.030483 
	C11.159720,21.350227 10.360762,22.807188 10.173294,24.535461 
z"/>
<path fill="#494E52" opacity="1.000000" stroke="none" 
	d="
M12.246527,74.240860 
	C12.752439,74.088318 13.478111,74.082191 14.562381,74.139992 
	C14.136518,74.717117 13.325130,74.869873 12.246527,74.240860 
z"/>
<path fill="#D1D9DF" opacity="1.000000" stroke="none" 
	d="
M212.770294,23.308519 
	C215.404221,22.248585 216.994766,20.387957 218.921692,18.487286 
	C227.095154,16.277266 235.114288,14.211270 243.617584,17.831470 
	C244.002380,17.890057 244.312744,18.105686 244.500320,18.128475 
	C249.749786,18.700390 253.596710,21.051714 256.169952,25.972698 
	C259.399963,28.551888 259.706879,32.053734 260.683990,35.698608 
	C264.436401,48.264805 262.198578,59.102142 253.182831,68.792007 
	C249.721039,71.938560 246.775314,75.445335 241.361237,74.234787 
	C229.830215,76.808907 220.664902,73.222008 212.615784,65.033875 
	C210.422821,61.637230 208.050323,58.652935 206.538116,54.779785 
	C202.822586,53.413166 202.916565,50.403522 202.682602,47.623837 
	C202.515732,45.641235 202.621429,43.647888 202.956039,41.275291 
	C204.055176,38.084557 206.962982,37.433830 209.059998,36.148838 
	C215.942139,31.931658 216.294006,31.372330 212.286804,24.608875 
	C212.357376,24.019659 212.435287,23.791386 212.770294,23.308519 
z"/>
<path fill="#555A5F" opacity="1.000000" stroke="none" 
	d="
M241.006226,74.433182 
	C244.283310,72.402565 247.533829,70.709358 250.596695,68.094116 
	C253.788696,65.866158 256.720001,66.072746 259.591614,67.917862 
	C264.172729,70.861427 269.116058,73.491585 270.746643,79.730331 
	C270.985992,83.747780 270.970520,87.500008 270.980530,91.252167 
	C270.988434,94.205322 270.062897,96.695366 267.280273,98.646942 
	C265.947296,98.902824 264.869781,98.935364 263.388489,98.953499 
	C262.097443,93.609932 257.984772,91.367859 253.678436,89.469315 
	C247.101456,86.569725 243.729340,81.006096 241.006226,74.433182 
z"/>
<path fill="#4A5055" opacity="1.000000" stroke="none" 
	d="
M184.419281,97.235275 
	C177.832169,94.363220 174.080002,86.868027 165.912216,87.878166 
	C164.157974,88.095116 162.440536,87.150352 162.281143,85.215858 
	C161.936188,81.029152 159.597107,77.436729 158.849609,73.090073 
	C158.606293,69.845024 161.998611,69.547577 163.171677,67.056686 
	C170.889252,63.430836 173.070358,56.370857 175.641235,49.125755 
	C177.582489,45.755928 175.326004,42.411095 176.803833,38.990894 
	C180.155655,36.170391 183.154526,38.142014 186.542938,39.078346 
	C188.225143,40.580795 188.282181,42.288017 188.312866,43.915699 
	C188.434097,50.349174 188.740738,56.787273 188.059860,63.212620 
	C187.459900,68.874496 188.307709,70.299179 193.980072,72.962257 
	C194.803574,73.491692 195.234558,73.846298 195.815918,74.627014 
	C195.691788,75.749710 195.541977,76.646202 195.028458,77.213440 
	C193.694794,78.686630 189.973801,78.180687 190.680008,81.087677 
	C191.443375,84.230011 193.076782,87.354271 196.218338,89.025017 
	C200.232269,91.159714 203.713959,93.883499 206.734009,97.708420 
	C199.572235,97.732590 192.160767,98.613358 184.419281,97.235275 
z"/>
<path fill="#4A5055" opacity="1.000000" stroke="none" 
	d="
M196.245392,74.753174 
	C195.400314,74.919357 194.793335,74.835480 193.732727,74.678223 
	C195.358566,62.870094 194.227127,51.013622 194.632477,39.215313 
	C194.694351,37.414696 194.702530,35.578419 196.009949,33.588375 
	C199.745621,31.283377 202.788712,31.933403 205.839752,34.927654 
	C206.691025,36.707626 206.587219,37.993004 205.437958,39.609093 
	C204.455002,44.660866 204.721741,49.239651 206.256958,54.115612 
	C203.897552,61.600494 200.732101,68.317780 196.245392,74.753174 
z"/>
<path fill="#D2D7DD" opacity="1.000000" stroke="none" 
	d="
M197.509979,33.642593 
	C197.075745,44.578915 196.964844,55.145504 196.792206,65.711082 
	C196.741531,68.813011 197.068344,72.105064 193.571655,74.371063 
	C187.180496,74.644173 185.422134,73.051682 185.470078,67.201210 
	C185.541779,58.448879 185.732162,49.697521 185.808594,40.482193 
	C182.310089,34.036629 182.844162,27.933167 185.513184,21.390404 
	C186.234451,18.826309 187.430679,17.260180 189.715240,16.123259 
	C192.403915,16.138285 194.453735,17.159355 196.563965,18.874611 
	C197.825821,19.904116 198.656372,20.837826 198.693420,22.714390 
	C198.942352,26.597120 200.320801,30.111696 197.509979,33.642593 
z"/>
<path fill="#D6DDE3" opacity="1.000000" stroke="none" 
	d="
M177.470398,38.824158 
	C177.676132,42.507648 178.295532,45.883724 177.278168,49.644306 
	C176.280182,50.784931 175.013855,51.064953 174.473694,50.287865 
	C172.528793,47.489872 169.442184,47.803352 166.424942,46.854622 
	C165.026932,45.690357 164.930664,44.334312 164.643219,43.041809 
	C162.160095,31.876415 156.365326,27.646366 145.111343,28.801050 
	C143.950943,28.920107 142.809235,29.171644 141.316925,28.428457 
	C136.958344,24.675421 137.040314,22.597618 141.676270,17.331743 
	C142.308548,16.880896 142.570908,16.690834 142.901688,16.222015 
	C147.364578,15.696121 151.713867,15.219047 156.531891,15.966919 
	C163.810074,18.505373 169.301254,22.733246 173.627380,28.993973 
	C175.628143,29.299198 176.387650,30.543669 177.232376,32.200352 
	C177.605179,32.944107 177.786346,33.380108 178.010803,34.169056 
	C178.325821,35.891262 178.273651,37.240341 177.470398,38.824158 
z"/>
<path fill="#52585D" opacity="1.000000" stroke="none" 
	d="
M175.429718,34.291653 
	C174.899567,32.651852 174.483093,31.274281 173.984528,29.544237 
	C174.755936,22.586933 179.211578,20.879955 185.430466,21.010338 
	C185.861694,27.034903 185.883850,33.063358 185.825562,39.555222 
	C183.090271,40.687424 180.504486,40.643688 177.682159,39.200191 
	C176.319550,38.101391 176.011246,36.877377 176.151611,35.172344 
	C175.867279,34.754646 175.705322,34.654266 175.429718,34.291653 
z"/>
<path fill="#5E6568" opacity="1.000000" stroke="none" 
	d="
M259.394226,36.256458 
	C257.808899,33.255219 256.479279,30.505882 255.049667,27.424175 
	C254.472855,24.942005 253.742020,22.737909 256.602783,21.108143 
	C260.777405,20.747622 264.492493,24.237186 268.656372,21.093983 
	C269.274994,23.078993 269.553650,25.158043 269.917358,27.617670 
	C270.296661,33.382286 271.351044,38.766048 270.002380,44.575317 
	C267.099182,45.471130 262.918457,42.965034 261.671783,39.651180 
	C261.194489,38.382488 260.846954,37.228497 259.394226,36.256458 
z"/>
<path fill="#60676D" opacity="1.000000" stroke="none" 
	d="
M256.822510,20.683662 
	C256.413361,22.812626 255.826736,24.625635 255.094910,26.765224 
	C252.023163,23.882677 249.103531,20.665474 244.909821,18.413483 
	C248.985382,17.208170 253.187302,16.780602 256.822510,20.683662 
z"/>
<path fill="#CCD5DC" opacity="1.000000" stroke="none" 
	d="
M141.624664,16.960121 
	C142.437607,20.275400 138.384705,23.447742 142.089355,26.990147 
	C142.634674,31.851595 139.202911,33.499493 135.455185,35.222343 
	C130.556091,33.589249 130.967728,29.148436 129.468948,25.360954 
	C132.215958,20.719967 136.295273,18.172253 141.624664,16.960121 
z"/>
<path fill="#444A4E" opacity="1.000000" stroke="none" 
	d="
M107.662415,27.580523 
	C111.731857,27.545753 115.162292,27.275066 116.397202,22.380596 
	C121.341034,20.817036 123.702553,24.073980 126.471100,27.445496 
	C127.542816,28.937855 127.337288,30.148447 126.250519,31.575886 
	C122.197258,34.052231 117.956764,33.276550 113.509766,33.762524 
	C111.218964,33.430695 109.197540,33.414074 107.351990,31.682728 
	C106.571541,30.136738 106.614677,28.985432 107.662415,27.580523 
z"/>
<path fill="#D3D7D9" opacity="1.000000" stroke="none" 
	d="
M124.607681,31.287901 
	C125.480782,30.086874 126.041382,29.170500 126.715439,27.952160 
	C126.828903,27.650198 126.925682,27.620199 126.912643,27.571243 
	C126.714310,27.368225 126.529007,27.214165 126.699020,27.126484 
	C127.637932,26.589022 128.221512,25.985176 129.061905,25.195175 
	C133.639023,26.196133 133.243256,30.395092 134.884705,33.723160 
	C136.531387,35.646885 135.844147,37.083725 134.377762,38.728825 
	C133.466110,39.258915 132.604431,39.162876 132.235275,39.540596 
	C128.490463,43.372284 125.249840,42.243423 121.955544,38.328209 
	C120.774406,35.127968 121.890068,33.091663 124.607681,31.287901 
z"/>
<path fill="#444A4E" opacity="1.000000" stroke="none" 
	d="
M117.508621,19.507778 
	C117.488113,19.515799 117.529129,19.499758 117.508621,19.507778 
z"/>
<path fill="#444A4E" opacity="1.000000" stroke="none" 
	d="
M126.981331,27.184732 
	C127.054352,27.192867 127.075668,27.403952 126.987640,27.463120 
	C126.899612,27.522287 126.908310,27.176598 126.981331,27.184732 
z"/>
<path fill="#575F65" opacity="1.000000" stroke="none" 
	d="
M197.590530,23.337948 
	C197.219345,21.961647 197.076675,20.905083 196.893005,19.450075 
	C202.149887,17.595608 206.941757,18.023949 210.737061,22.591763 
	C211.030807,22.945293 211.986710,22.748636 212.831116,22.930813 
	C213.027359,23.053928 212.958542,23.476624 212.952301,23.690662 
	C212.433716,26.552338 212.235397,29.385099 208.679749,30.554306 
	C202.792236,31.315659 200.478592,27.227350 197.590530,23.337948 
z"/>
<path fill="#585F63" opacity="1.000000" stroke="none" 
	d="
M259.147949,36.421135 
	C260.304260,35.923355 262.098175,33.925308 262.461426,35.668243 
	C263.357819,39.969238 267.691895,41.263081 269.693176,44.850906 
	C271.768005,54.274685 269.712616,63.573444 270.183350,72.853714 
	C270.290802,74.972008 270.665009,77.076752 270.953491,79.591660 
	C267.831573,77.862595 265.448456,74.863747 262.202118,72.707008 
	C258.835388,70.470276 255.248795,69.278549 251.249695,67.969749 
	C259.046875,59.017124 262.036377,48.705566 259.147949,36.421135 
z"/>
<path fill="#D8DDE2" opacity="1.000000" stroke="none" 
	d="
M122.840111,38.170471 
	C125.700630,38.982361 128.256058,41.742496 130.004974,36.940948 
	C130.416245,35.811806 132.033249,36.927113 133.025833,38.124561 
	C135.237122,39.365692 135.172592,41.284275 135.366058,43.075394 
	C136.571091,54.232201 139.802124,58.047035 150.508240,60.909470 
	C151.482132,61.169849 152.351074,61.616936 153.438843,62.426376 
	C155.296066,65.471405 158.075165,65.725571 160.826630,65.912384 
	C162.650711,66.036240 164.450287,66.019920 165.062073,68.540573 
	C163.027298,70.032524 161.080582,71.177254 158.899750,72.579376 
	C147.915482,75.818825 138.878159,72.743652 130.856812,64.918289 
	C126.325890,64.226379 124.635101,61.050198 123.012299,57.213806 
	C120.581703,50.702114 119.004280,44.571518 122.840111,38.170471 
z"/>
<path fill="#4C473A" opacity="1.000000" stroke="none" 
	d="
M77.306458,19.472853 
	C80.609535,19.894855 79.161087,24.199673 82.591370,24.920713 
	C84.184708,31.524176 83.261086,38.124424 83.470840,44.692917 
	C83.634422,49.815628 83.463043,54.946846 83.628876,60.539719 
	C83.794571,64.045563 83.860863,67.085800 84.050308,70.566422 
	C84.173462,71.006798 84.046288,71.461670 83.986206,71.689156 
	C81.975273,71.832359 80.924942,70.724686 80.838158,68.323914 
	C79.632950,70.079521 80.181564,71.923386 77.981171,72.705444 
	C76.506058,71.692993 76.176239,70.659134 76.218262,69.415947 
	C76.750961,53.655411 76.735062,37.893764 76.227699,22.132563 
	C76.199814,21.266254 76.497795,20.511253 77.306458,19.472853 
z"/>
<path fill="#43494D" opacity="1.000000" stroke="none" 
	d="
M124.767067,56.752396 
	C126.843727,59.354271 128.550262,61.756123 130.412491,64.469833 
	C130.084839,65.611763 129.601501,66.441818 129.059692,67.635864 
	C125.532486,69.539078 122.063759,71.078293 118.297028,72.806007 
	C117.316536,73.576805 116.546394,73.736191 115.345062,73.239929 
	C114.760040,72.765343 114.518700,72.524124 114.077385,72.122971 
	C113.638290,71.783905 113.399170,71.604767 112.847519,71.104340 
	C112.363899,70.538147 112.192802,70.293243 111.878059,69.624268 
	C111.530907,65.348206 111.328690,61.496265 112.361435,57.293491 
	C116.416695,53.817249 120.389862,54.613777 124.767067,56.752396 
z"/>
<path fill="#D2B361" opacity="1.000000" stroke="none" 
	d="
M74.366791,74.894760 
	C73.516693,74.980621 73.095245,75.003738 72.357162,75.024223 
	C70.534103,74.063423 68.034592,74.884285 67.205643,72.096992 
	C67.039764,71.778694 67.005577,71.352554 66.936760,71.150185 
	C66.082268,67.637680 66.693489,64.276169 66.500008,60.490143 
	C66.505180,56.134739 66.489182,52.233433 66.543167,47.897087 
	C69.899010,46.139748 69.933823,48.735806 70.187668,50.677979 
	C70.682106,54.460915 70.525665,58.289089 70.426781,62.090294 
	C70.317635,66.285912 71.644432,69.544044 75.775047,71.855255 
	C76.716911,73.585358 76.025429,74.335846 74.366791,74.894760 
z"/>
<path fill="#494131" opacity="1.000000" stroke="none" 
	d="
M67.731155,46.754601 
	C67.248039,51.076969 67.120338,55.082489 66.926071,59.547020 
	C66.716881,60.227673 66.574242,60.449322 66.231750,60.329834 
	C66.018837,51.286488 66.005775,42.584274 65.997299,33.409466 
	C66.302925,32.870312 66.603966,32.803753 67.296867,32.988457 
	C69.740555,35.505604 70.263100,38.219212 69.952286,41.629845 
	C69.410942,43.594349 69.192848,45.201351 67.731155,46.754601 
z"/>
<path fill="#78A2C2" opacity="1.000000" stroke="none" 
	d="
M85.798355,73.361984 
	C87.815300,73.101524 89.990150,73.058762 92.626091,73.026718 
	C92.790184,73.473862 92.493187,73.910301 92.054710,74.570808 
	C91.374321,75.546532 90.657715,75.747269 89.416779,75.317154 
	C88.617645,75.029274 88.191780,74.903984 87.435486,74.736755 
	C86.722122,74.323105 86.339195,73.951393 85.798355,73.361984 
z"/>
<path fill="#4C473A" opacity="1.000000" stroke="none" 
	d="
M66.020218,60.438953 
	C66.031898,59.988697 66.445717,59.996765 66.652618,60.001396 
	C66.897293,63.352253 66.935066,66.698479 66.920395,70.496262 
	C65.296425,67.704742 66.244850,64.246361 66.020218,60.438953 
z"/>
<path fill="#4C473A" opacity="1.000000" stroke="none" 
	d="
M74.193375,75.088631 
	C74.597664,74.505661 75.257187,74.053833 76.112610,73.365723 
	C76.527687,72.781532 76.837090,72.577858 77.517845,72.665085 
	C77.785255,72.789764 77.946411,72.952637 78.027245,73.035736 
	C77.355492,74.632988 76.389442,75.775330 74.193375,75.088631 
z"/>
<path fill="#4C473A" opacity="1.000000" stroke="none" 
	d="
M67.081207,72.155334 
	C68.413994,72.934166 69.801620,74.067276 71.821098,74.766846 
	C70.038719,74.907829 67.752235,75.356384 67.081207,72.155334 
z"/>
<path fill="#524936" opacity="1.000000" stroke="none" 
	d="
M67.249870,32.683807 
	C66.950890,33.000572 66.476578,32.967995 66.239227,32.952431 
	C65.693710,31.870226 65.385536,30.803583 64.997910,29.413805 
	C64.918457,29.090668 65.064407,28.957169 65.138039,28.891148 
	C67.581024,28.956388 68.163971,30.266430 67.249870,32.683807 
z"/>
<path fill="#DFB14D" opacity="1.000000" stroke="none" 
	d="
M77.850662,72.385300 
	C77.459816,72.878426 77.134384,72.967087 76.558716,73.092598 
	C69.287598,72.735909 68.090851,71.487396 67.977516,64.550659 
	C67.886490,58.979671 67.754013,53.409359 67.507835,47.455097 
	C67.332329,45.635406 67.288902,44.199371 67.316818,42.335655 
	C67.630608,38.829296 67.393402,35.743538 67.517418,32.665207 
	C67.587334,30.929884 67.277435,29.440855 65.401047,28.202080 
	C65.102921,27.947306 65.037766,27.956978 65.044678,27.924772 
	C64.461914,27.371927 64.101540,26.598640 63.005447,26.294497 
	C62.706623,26.282257 62.845711,26.139034 62.916817,26.209095 
	C62.195465,24.995932 60.913330,25.524748 59.848747,25.525202 
	C48.149971,25.530188 36.450863,25.408848 24.363377,25.833664 
	C23.974417,26.097908 24.009012,26.009567 24.053158,26.026924 
	C23.585945,26.424131 22.938988,26.483511 22.224188,27.033394 
	C22.061157,27.298927 22.016491,27.664612 21.923031,27.823452 
	C20.012371,24.931093 17.391895,22.256157 18.410992,18.090631 
	C18.812214,16.450655 17.005243,16.174553 15.299002,15.969069 
	C16.798847,14.376106 19.064528,14.849086 21.166176,14.854413 
	C36.309971,14.892799 51.453560,15.017958 66.597160,15.123079 
	C70.497963,15.150156 74.280693,15.542198 77.359039,18.955017 
	C80.288063,29.582516 78.713417,40.210537 78.882057,50.747993 
	C78.995178,57.815716 79.773895,64.977982 77.850662,72.385300 
z"/>
<path fill="#DFB14D" opacity="1.000000" stroke="none" 
	d="
M9.988369,25.355312 
	C9.955818,23.541767 9.992840,22.201775 10.049911,20.459299 
	C10.465533,19.698763 10.861106,19.340710 11.487196,18.843699 
	C10.468019,29.410089 11.222251,40.160370 10.973994,50.888134 
	C10.932427,52.684288 10.596299,54.473621 10.201290,56.628395 
	C10.023515,46.603413 10.040729,36.216141 9.988369,25.355312 
z"/>
<path fill="#C4A14C" opacity="1.000000" stroke="none" 
	d="
M20.573528,37.312290 
	C20.789803,38.719067 20.857019,40.439281 20.838736,42.583439 
	C19.849447,41.262016 19.834156,39.462372 20.573528,37.312290 
z"/>
<path fill="#C4A14C" opacity="1.000000" stroke="none" 
	d="
M20.823158,30.161901 
	C20.964016,30.712072 20.932993,31.485029 20.811420,32.634014 
	C20.201290,32.148083 20.125483,31.274357 20.823158,30.161901 
z"/>
<path fill="#D2B361" opacity="1.000000" stroke="none" 
	d="
M24.447132,26.069895 
	C25.243900,25.172421 26.707331,25.001368 28.216898,25.002111 
	C38.465652,25.007160 48.714550,24.986946 58.962952,25.049011 
	C60.075516,25.055748 61.185219,25.535318 62.642086,26.037361 
	C50.300472,25.894346 37.612282,25.627750 24.447132,26.069895 
z"/>
<path fill="#D2B361" opacity="1.000000" stroke="none" 
	d="
M65.127670,28.167063 
	C68.924774,29.304911 67.836578,32.621754 67.963043,35.369549 
	C68.051384,37.289246 67.765350,39.226173 67.517349,41.531693 
	C67.287323,39.234219 67.186485,36.560455 67.018265,33.443634 
	C67.137871,31.555929 66.714592,30.298864 65.496918,29.011713 
	C65.211670,28.825129 65.152428,28.386820 65.127670,28.167063 
z"/>
<path fill="#D2B361" opacity="1.000000" stroke="none" 
	d="
M62.871971,26.522263 
	C63.398731,26.637754 64.090843,26.993250 64.917267,27.620657 
	C64.380157,27.515799 63.708736,27.139032 62.871971,26.522263 
z"/>
<path fill="#D2B361" opacity="1.000000" stroke="none" 
	d="
M22.370327,27.224022 
	C22.545198,26.940525 23.029240,26.582123 23.805294,26.134003 
	C23.624704,26.412563 23.152102,26.780840 22.370327,27.224022 
z"/>
<path fill="#D6DCE0" opacity="1.000000" stroke="none" 
	d="
M114.604416,56.632446 
	C114.281960,61.026310 114.216080,65.064774 114.049713,69.558342 
	C113.832390,70.157341 113.715553,70.301231 113.701508,70.703461 
	C113.824501,71.128090 113.844704,71.294380 113.871155,71.711853 
	C111.783791,74.116341 109.093239,75.718109 106.334274,74.467033 
	C103.552788,73.205750 103.127815,70.096970 103.220688,67.102142 
	C103.525383,57.276440 103.771912,47.448830 104.004639,37.621094 
	C104.044601,35.933449 104.188004,34.297108 105.121811,32.376465 
	C105.370522,31.568365 105.518158,31.174725 105.966400,30.606291 
	C106.625931,30.283283 107.040321,30.271217 107.735634,30.514240 
	C109.725998,30.955559 111.599083,30.545887 113.437889,31.956051 
	C115.113449,32.450417 116.205338,33.105885 116.862938,34.828224 
	C117.154251,36.261360 117.200607,37.326084 117.287247,38.805382 
	C116.554314,44.915531 117.409370,50.840572 114.604416,56.632446 
z"/>
<path fill="#464E53" opacity="1.000000" stroke="none" 
	d="
M95.238510,64.611755 
	C95.091675,54.658905 95.131920,44.341511 95.257797,33.571732 
	C96.454079,43.492439 96.332939,53.868790 95.238510,64.611755 
z"/>
<path fill="#464E53" opacity="1.000000" stroke="none" 
	d="
M108.013390,30.329727 
	C107.563721,30.819502 107.115105,30.971073 106.323647,31.218149 
	C105.815926,31.356260 105.651039,31.398867 105.275009,31.297668 
	C105.046272,29.705145 105.028671,28.256430 105.016754,26.373524 
	C105.813484,26.306057 106.604530,26.672777 107.701691,27.161316 
	C108.010010,28.185934 108.012222,29.088730 108.013390,30.329727 
z"/>
<path fill="#464D52" opacity="1.000000" stroke="none" 
	d="
M115.082527,73.293198 
	C115.750793,73.003807 116.500206,73.001053 117.624321,72.996399 
	C117.829208,73.881020 117.913101,75.036499 116.672035,75.114227 
	C115.791954,75.169350 115.439949,74.322800 115.082527,73.293198 
z"/>
<path fill="#464D52" opacity="1.000000" stroke="none" 
	d="
M89.179886,75.398605 
	C89.758720,75.042465 90.473938,74.930367 91.551193,74.806572 
	C91.850868,75.584991 92.008057,76.580811 91.105812,76.902191 
	C90.125412,77.251427 89.767982,76.282928 89.179886,75.398605 
z"/>
<path fill="#CED4DA" opacity="1.000000" stroke="none" 
	d="
M105.081497,31.368149 
	C105.063866,31.153862 105.540321,31.130548 105.760567,31.222099 
	C105.866051,31.503996 105.720352,31.666624 105.405037,31.890072 
	C105.266350,31.978607 105.099129,31.582434 105.081497,31.368149 
z"/>
<path fill="#445057" opacity="1.000000" stroke="none" 
	d="
M83.806076,60.540894 
	C82.129295,53.487755 83.260620,45.877914 82.986656,38.315269 
	C82.837234,34.190639 82.958214,30.056211 82.946472,25.456020 
	C82.935692,24.985842 83.423668,24.985189 83.667625,24.988556 
	C83.902344,36.686771 83.893105,48.381622 83.806076,60.540894 
z"/>
<path fill="#565D62" opacity="1.000000" stroke="none" 
	d="
M225.927917,27.996634 
	C226.154053,27.737263 226.324188,27.729395 226.328552,27.814438 
	C227.071732,27.828493 227.749802,27.489132 228.757858,27.160673 
	C236.441238,24.957315 243.095169,27.783449 247.227051,34.638992 
	C254.031174,45.928246 247.716080,62.117023 235.696304,64.310036 
	C232.252045,64.938431 229.095001,64.231636 225.705765,62.563694 
	C225.877014,57.287811 228.260544,52.541210 227.583862,47.271450 
	C227.233749,44.544731 226.882294,41.677776 224.563156,40.212330 
	C220.094162,37.388409 220.226746,34.089725 222.732254,29.811546 
	C222.937195,29.210121 223.112686,29.035717 223.565170,28.934547 
	C224.362106,28.575243 225.066010,28.515291 225.927917,27.996634 
z"/>
<path fill="#51595D" opacity="1.000000" stroke="none" 
	d="
M222.536636,29.643055 
	C222.824463,33.373627 223.885437,36.203323 227.192902,39.190414 
	C232.328217,43.828335 230.998169,56.525341 225.671387,62.111206 
	C213.601028,53.940228 212.187973,39.442078 222.536636,29.643055 
z"/>
<path fill="#C8D4D9" opacity="1.000000" stroke="none" 
	d="
M208.052429,29.122866 
	C209.786316,27.404840 211.117508,25.850775 212.697372,24.100704 
	C215.536774,25.311356 218.969742,26.550676 218.229767,30.124266 
	C217.538513,33.462509 215.473465,36.456161 211.871582,37.763443 
	C209.868393,38.490505 207.858917,39.200348 205.488159,39.962914 
	C205.154129,39.055626 205.184235,38.103371 205.234924,36.791676 
	C204.773575,33.621548 203.762482,30.633558 208.052429,29.122866 
z"/>
<path fill="#51595D" opacity="1.000000" stroke="none" 
	d="
M225.807373,27.772440 
	C225.571411,28.073229 224.988754,28.409193 224.080963,28.833029 
	C224.324127,28.549807 224.892426,28.178711 225.807373,27.772440 
z"/>
<path fill="#51595D" opacity="1.000000" stroke="none" 
	d="
M228.649109,26.901812 
	C228.368927,27.197178 227.709320,27.484861 226.691315,27.836016 
	C226.978516,27.564367 227.624100,27.229248 228.649109,26.901812 
z"/>
<path fill="#D1DAE0" opacity="1.000000" stroke="none" 
	d="
M165.288818,68.779190 
	C163.140030,67.563705 161.138794,68.941467 159.312759,68.562637 
	C156.670944,68.014572 153.730591,67.574097 153.063065,63.706375 
	C153.057281,62.632694 153.149521,61.862919 153.702591,61.496952 
	C159.160522,57.885456 162.932846,52.949413 165.388748,46.932987 
	C165.567596,46.494854 166.120865,46.279594 166.940033,46.044983 
	C168.038651,45.648243 168.858383,45.403034 169.527222,44.939892 
	C173.025360,42.517559 174.968536,43.105965 175.207153,47.636261 
	C175.243790,48.331684 176.022095,48.988045 176.775986,49.835274 
	C176.356720,58.133018 171.971725,64.012321 165.288818,68.779190 
z"/>
<path fill="#50575C" opacity="1.000000" stroke="none" 
	d="
M208.062515,28.935482 
	C207.534866,31.248243 206.614594,33.537586 205.474915,36.129581 
	C203.146622,34.681854 200.581436,34.319786 197.599121,34.028179 
	C197.216553,30.650131 197.222900,27.287548 197.295624,23.471588 
	C201.855911,23.132553 203.322128,28.542118 208.062515,28.935482 
z"/>
<path fill="#444B50" opacity="1.000000" stroke="none" 
	d="
M167.220642,45.572075 
	C165.960388,54.264984 162.048950,60.471111 153.330261,63.195694 
	C139.661011,64.717613 131.200806,52.081646 133.196625,38.831558 
	C133.800034,37.168907 134.373337,35.935619 135.013550,34.365318 
	C137.242676,31.790472 139.123871,29.245956 142.165970,27.468365 
	C155.097382,22.337622 166.803421,30.655762 167.220642,45.572075 
z"/>
<path fill="#565C62" opacity="1.000000" stroke="none" 
	d="
M175.273865,34.259621 
	C175.508316,34.181553 175.678680,34.355179 175.928192,34.702660 
	C175.672607,34.931492 175.406769,34.809757 175.273865,34.259621 
z"/>
<path fill="#3E4346" opacity="1.000000" stroke="none" 
	d="
M114.608719,36.306992 
	C114.975822,34.799706 114.727600,33.712299 113.915176,32.404701 
	C117.155136,30.427292 120.774521,30.988756 124.618370,30.939735 
	C124.350464,33.097832 123.780746,35.192417 123.242760,37.649712 
	C122.394867,44.208294 122.706161,50.288506 125.087646,56.562454 
	C121.792984,58.964207 118.435219,57.395782 114.714851,56.989166 
	C113.827209,50.937065 114.586014,44.916126 114.727898,38.450119 
	C114.446327,37.582596 114.354774,37.119976 114.608719,36.306992 
z"/>
<path fill="#E4E9ED" opacity="1.000000" stroke="none" 
	d="
M113.914909,70.736084 
	C113.720406,70.710938 113.729858,70.469070 113.890945,70.124832 
	C113.974655,70.179085 114.000084,70.344719 113.914909,70.736084 
z"/>
<path fill="#E3B044" opacity="1.000000" stroke="none" 
	d="
M29.412073,16.642902 
	C29.058319,16.689972 28.782444,16.631790 28.506569,16.573608 
	C28.577736,16.459618 28.676765,16.238750 28.715578,16.248869 
	C28.980776,16.318001 29.233324,16.435648 29.412073,16.642902 
z"/>
<path fill="#CED4DA" opacity="1.000000" stroke="none" 
	d="
M114.525360,36.021370 
	C114.816460,36.443531 114.848999,36.899597 114.783585,37.687057 
	C114.120033,37.751209 113.213074,37.608295 113.060883,37.190468 
	C112.756905,36.355923 113.639946,36.221397 114.525360,36.021370 
z"/>
</svg>